# xmcd
#
# Track frame offsets:
#	150
#	20499
#	32831
#	50016
#	68290
#	85715
#	110137
#	129181
#	155703
#	177453
#	194522
#	213799
#
# Disc length: 3048 seconds
#
# Revision: 1
# Processed by: cddbd v1.5.1PL0 Copyright (c) Steve Scherf et al.
# Submitted via: CDex 1.50Beta5
#
DISCID=a10be60c
DTITLE=米良美一 - かれん
DYEAR=1998
DGENRE=
TTITLE0=すみれの花咲く頃
TTITLE1=恋はやさしい野辺の花よ*ボッカッチョ
TTITLE2=水色のワルツ
TTITLE3=月がとっても青いから
TTITLE4=恋心
TTITLE5=カチューシャの唄
TTITLE6=胸の振子
TTITLE7=影を慕いて
TTITLE8=ゴンドラの唄
TTITLE9=あざみの歌
TTITLE10=見上げてごらん夜の星を
TTITLE11=夜来香
EXTD=
EXTT0=
EXTT1=
EXTT2=
EXTT3=
EXTT4=
EXTT5=
EXTT6=
EXTT7=
EXTT8=
EXTT9=
EXTT10=
EXTT11=
PLAYORDER=
